HIERARCHY
ROOT Hips
{
	OFFSET 0.00000 0.00000 0.00000
	CHANNELS 6 Xposition Yposition Zposition Zrotation Yrotation Xrotation 
	JOINT LHipJoint
	{
		OFFSET 0 0 0
		CHANNELS 3 Zrotation Yrotation Xrotation
		JOINT LeftHip
		{
			OFFSET 1.54859 -1.61379 0.86856
			CHANNELS 3 Zrotation Yrotation Xrotation
			JOINT LeftKnee
			{
				OFFSET 2.25087 -6.18423 0.00000
				CHANNELS 3 Zrotation Yrotation Xrotation
				JOINT LeftAnkle
				{
					OFFSET 2.40328 -6.60297 0.00000
					CHANNELS 3 Zrotation Yrotation Xrotation
					JOINT LeftToe
					{
						OFFSET 0.17435 -0.47901 2.02453
						CHANNELS 3 Zrotation Yrotation Xrotation
						End Site
						{
							OFFSET 0.00000 -0.00000 1.04844
						}
					}
				}
			}
		}
	}
	JOINT RHipJoint
	{
		OFFSET 0 0 0
		CHANNELS 3 Zrotation Yrotation Xrotation
		JOINT RightHip
		{
			OFFSET -1.54669 -1.61379 0.86856
			CHANNELS 3 Zrotation Yrotation Xrotation
			JOINT RightKnee
			{
				OFFSET -2.28132 -6.26789 0.00000
				CHANNELS 3 Zrotation Yrotation Xrotation
				JOINT RightAnkle
				{
					OFFSET -2.51636 -6.91365 0.00000
					CHANNELS 3 Zrotation Yrotation Xrotation
					JOINT RightToe
					{
						OFFSET -0.15124 -0.41552 2.21090
						CHANNELS 3 Zrotation Yrotation Xrotation
						End Site
						{
							OFFSET -0.00000 -0.00000 1.13399
						}
					}
				}
			}
		}
	}
	JOINT lowerback
	{
		OFFSET 0 0 0
		CHANNELS 3 Zrotation Yrotation Xrotation
		JOINT Chest
		{
			OFFSET -0.04287 2.26161 -0.25690
			CHANNELS 3 Zrotation Yrotation Xrotation
			JOINT Chest2
			{
				OFFSET 0.02248 2.28395 -0.10140
				CHANNELS 3 Zrotation Yrotation Xrotation
				JOINT lowerneck
				{
					OFFSET 0 0 0
					CHANNELS 3 Zrotation Yrotation Xrotation
					JOINT Neck
					{
						OFFSET -0.11644 1.38496 0.11345
						CHANNELS 3 Zrotation Yrotation Xrotation
						JOINT Head
						{
							OFFSET 0.29383 1.36600 0.06642
							CHANNELS 3 Zrotation Yrotation Xrotation
							End Site
							{
								OFFSET 0.11075 1.41395 -0.00294
							}
						}
					}
				}
				JOINT LeftCollar
				{
					OFFSET 0 0 0
					CHANNELS 3 Zrotation Yrotation Xrotation
					JOINT LeftShoulder
					{
						OFFSET 3.51628 0.59542 -0.30346
CHANNELS 3 Zrotation Xrotation Yrotation
						JOINT LeftElbow
						{
OFFSET 0 -4.764050 0.000000
CHANNELS 3 Zrotation Xrotation Yrotation
							JOINT LeftWrist
							{
OFFSET 0 -3.137590 -0.000000
CHANNELS 3 Zrotation Xrotation Yrotation
								JOINT lhand
								{
									OFFSET 0 0 0
CHANNELS 3 Zrotation Xrotation Yrotation
									JOINT LFingers
									{
OFFSET 0 -0.732260 -0.000000
CHANNELS 3 Zrotation Xrotation Yrotation
										End Site
										{
OFFSET 0 -0.590370 -0.000000
										}
									}
								}
								JOINT LThumb
								{
OFFSET 0 0.000000 0.000000
CHANNELS 3 Zrotation Xrotation Yrotation
									End Site
									{
OFFSET 0 -0.599380 0.599380
									}
								}
							}
						}
					}
				}
				JOINT RightCollar
				{
					OFFSET 0 0 0
					CHANNELS 3 Zrotation Yrotation Xrotation
					JOINT RightShoulder
					{
						OFFSET -3.30990 0.84213 -0.36430
CHANNELS 3 Zrotation Xrotation Yrotation
						JOINT RightElbow
						{
OFFSET 0 -5.101610 -0.000000
CHANNELS 3 Zrotation Xrotation Yrotation
							JOINT RightWrist
							{
OFFSET 0 -3.232670 -0.000000
CHANNELS 3 Zrotation Xrotation Yrotation
								JOINT rhand
								{
									OFFSET 0 0 0
CHANNELS 3 Zrotation Xrotation Yrotation
									JOINT RFingers
									{
OFFSET 0 -0.702000 -0.000000
CHANNELS 3 Zrotation Xrotation Yrotation
										End Site
										{
OFFSET 0 -0.565970 -0.000000
										}
									}
								}
								JOINT RThumb
								{
OFFSET 0 0.000000 0.000000
CHANNELS 3 Zrotation Xrotation Yrotation
									End Site
									{
OFFSET 0 -0.574610 0.574610
									}
								}
							}
						}
					}
				}
			}
		}
	}
}
MOTION
Frames: 5
Frame Time: 0.008333333333333333
-20.709846 14.747319 0.218571 -11.636777 73.101235 1.481315 0.000000 0.000000 0.000000 -25.273385 3.125592 -2.394510 4.735936 13.075174 39.659007 -0.460929 -17.163928 -6.920191 0.368339 3.890517 10.769887 0.000000 0.000000 0.000000 4.054274 14.574992 -48.503457 -16.537781 -19.707785 79.828923 -0.546282 -2.730343 -15.222304 -1.387577 7.452345 -21.062909 -1.579280 -3.085618 13.157310 2.025256 -3.884530 7.888642 3.452454 -1.913776 1.187140 -7.587246 2.178687 -8.585627 10.020870 4.192107 -7.713052 4.319306 2.350496 -1.234920 0.000000 0.000000 0.000000 11.716439 -2.051361 -36.507794 44.834494 -50.684998 22.111224 30.879911 2.403258 -25.217537 0.000000 0.000000 0.000000 -7.125000 0.000000 0.000000 1.447880 58.728016 -0.484339 0.000000 0.000000 0.000000 4.118878 7.752258 21.213386 -121.254123 -55.960035 -86.698851 -39.138419 -74.938975 -19.027674 0.000000 0.000000 0.000000 7.125000 0.000000 0.000000 -6.897695 6.154569 -6.163466
-20.574137 14.702556 0.305914 -11.417532 73.210706 1.635345 0.000000 0.000000 0.000000 -25.153155 3.418376 -1.048130 4.474009 12.760922 38.487820 -0.471587 -17.268983 -6.898774 0.424216 4.173151 11.565260 0.000000 0.000000 0.000000 3.378623 14.509777 -49.537970 -16.183943 -19.644955 78.778169 -0.543846 -2.867828 -15.270112 -1.428330 7.556436 -21.374928 -1.813040 -3.273855 13.239730 2.039568 -4.158790 7.833526 3.635361 -2.059127 1.125021 -7.438139 2.491061 -8.528481 9.831009 4.598320 -7.790955 4.235719 2.549289 -1.298359 0.000000 0.000000 0.000000 11.630517 -3.501882 -35.804381 45.387683 -50.954995 22.540072 31.263134 3.076575 -24.965811 0.000000 0.000000 0.000000 -7.125000 0.000000 0.000000 1.962041 58.544449 -0.648418 0.000000 0.000000 0.000000 4.197035 7.776974 21.924157 -122.442768 -55.616906 -87.681954 -39.198458 -73.375126 -18.622222 0.000000 0.000000 0.000000 7.125000 0.000000 0.000000 -7.011885 6.626708 -6.202798
-20.436950 14.656557 0.392720 -11.200544 73.317058 1.788811 0.000000 0.000000 0.000000 -25.032039 3.717315 0.297390 4.217592 12.438957 37.311150 -0.476923 -17.323534 -6.890232 0.467836 4.385014 12.162704 0.000000 0.000000 0.000000 2.733209 14.420667 -50.506901 -15.805700 -19.569707 77.650436 -0.537405 -3.015016 -15.274995 -1.469191 7.659076 -21.683506 -2.042823 -3.464779 13.324247 2.061217 -4.436839 7.774459 3.824854 -2.206145 1.061073 -7.293843 2.812681 -8.452332 9.542721 5.005500 -7.839668 4.229917 2.752947 -1.399723 0.000000 0.000000 0.000000 11.541934 -4.876984 -35.125589 45.900447 -51.200506 22.938897 31.732958 3.755187 -24.714219 0.000000 0.000000 0.000000 -7.125000 0.000000 0.000000 2.572668 58.380664 -0.840531 0.000000 0.000000 0.000000 4.244713 7.739628 22.635654 -123.541237 -55.284824 -88.586975 -39.212025 -71.666995 -18.241445 0.000000 0.000000 0.000000 7.125000 0.000000 0.000000 -7.091914 7.082667 -6.211893
-20.298449 14.609460 0.479048 -10.985562 73.420642 1.941775 0.000000 0.000000 0.000000 -24.910134 4.021721 1.642146 3.966069 12.110139 36.129610 -0.477532 -17.333227 -6.893125 0.500571 4.534020 12.584345 0.000000 0.000000 0.000000 2.114653 14.310334 -51.417582 -15.405780 -19.483430 76.454331 -0.527407 -3.170822 -15.241753 -1.510147 7.760426 -21.989029 -2.269072 -3.658090 13.410625 2.089384 -4.718255 7.711883 4.020195 -2.354644 0.995503 -7.153821 3.142513 -8.359305 9.167010 5.413540 -7.862456 4.293204 2.960925 -1.534772 0.000000 0.000000 0.000000 11.450988 -6.185097 -34.468665 46.377306 -51.424268 23.311056 32.279701 4.438502 -24.462746 0.000000 0.000000 0.000000 -7.125000 0.000000 0.000000 3.268975 58.234450 -1.057543 0.000000 0.000000 0.000000 4.265318 7.647159 23.347795 -124.559611 -54.962553 -89.422645 -39.184314 -69.830714 -17.882583 0.000000 0.000000 0.000000 7.125000 0.000000 0.000000 -7.141599 7.524253 -6.194130
-20.157991 14.561114 0.564552 -10.782272 73.515626 2.086112 0.000000 0.000000 0.000000 -24.790557 4.330980 2.987413 3.721130 11.773687 34.943757 -0.469343 -17.275346 -6.935211 0.507848 4.567857 12.679978 0.000000 0.000000 0.000000 1.529331 14.180645 -52.254699 -14.989315 -19.383190 75.201776 -0.513918 -3.308011 -15.153963 -1.551359 7.860698 -22.292082 -2.484678 -3.854836 13.496465 2.128449 -5.003616 7.645163 4.222008 -2.504788 0.929336 -7.000913 3.482705 -8.290941 8.854076 5.841305 -7.881014 4.248871 3.173927 -1.615699 0.000000 0.000000 0.000000 11.359332 -7.393822 -33.859222 46.818916 -51.627880 23.656736 32.908436 5.099339 -24.219958 0.000000 0.000000 0.000000 -7.125000 0.000000 0.000000 4.055362 58.116588 -1.301517 0.000000 0.000000 0.000000 4.249680 7.480362 24.063712 -125.482400 -54.658702 -90.176977 -39.086476 -67.855707 -17.552215 0.000000 0.000000 0.000000 7.125000 0.000000 0.000000 -7.141079 7.949464 -6.134136
